# xmcd
#
# Track frame offsets: 
#        150
#        33021
#        71868
#        117234
#        136553
#        156654
#        187008
#
# Disc length: 2724 seconds
#
# Revision: 0
# Processed by: cddbd v1.5.2PL0 Copyright (c) Steve Scherf et al.
# Submitted via: ExactAudioCopy v1.1
#
DISCID=5e0aa207
DTITLE=Gregory Porter - Live In Berlin 1
DYEAR=2016
DGENRE=Blues
TTITLE0=Holding On
TTITLE1=On My Way To Harlem - What's Goin On
TTITLE2=Take Me To The Alley
TTITLE3=Don't Lose Your Steam
TTITLE4=Laura
TTITLE5=Liquid Spirit
TTITLE6=Consequence of Love
EXTD=
EXTT0=
EXTT1=
EXTT2=
EXTT3=
EXTT4=
EXTT5=
EXTT6=
PLAYORDER=
